Patient4_TMGait_0pt5_01_left_28_EMG.mot
version=1
nRows=26
nColumns=33
inDegrees=no
endheader
time	1LAddLong	2LGlutMax	3LGlutMed	4LIliopsoas	5LSemiMemb	6LBicFemLong	7LRecFem	8LVastMed	9LVastLat	10LGasMed	11LTibAnt	12lTibPost	13LPeroneusLong	14LSol	15LExtDigLong	16LFlexDigLong	17RAddLong	18RGlutMax	19RGlutMed	20RIliopsoas	21RSemiMemb	22RBicFemLong	23RRecFem	24RVastMed	25RVastLat	26RGasMed	27RTibAnt	28RTibPost	29RPeroneusLong	30RSol	31RExtDigLong	32RFlexDigLong
37.4	0.013733	0.44968	-0.059967	0.01709	0.007019	-0.024261	-0.04837	0.008392	0.2124	-0.002289	-0.046234	-0.005646	0.087585	0.053101	-0.063171	-0.007782	0.001068	0.21606	0.65704	-0.001526	0.01709	0.09552	0.076752	0.047913	0.037384	-0.093994	-0.008545	-0.013123	1.7455	0.21668	-0.002136	-0.002747
37.401	0.014191	0.4512	-0.075836	0.00824	0.001068	-0.009766	-0.050812	0.009766	0.20309	0.000305	0.015564	-0.012054	0.069122	0.048523	-0.034637	-0.015564	0.005798	0.31754	0.75775	0.032654	0.001678	0.11063	0.10452	-0.015564	0.053864	-0.038605	0.10376	-0.013885	-2.1602	0.10895	-0.002594	0.00473
37.402	0.010986	0.44418	-0.06958	0.003967	0.000153	-0.012512	-0.032196	0.010223	0.2063	0.00061	0.072021	-0.012817	0.015564	0.00946	-0.005798	-0.008392	0.016632	0.44144	1.2456	0.018768	-0.021057	-0.041199	0.12848	-0.088806	0.017853	-0.000153	0.089111	-0.013428	-2.057	0.083618	-0.003052	0.001373
37.403	0.016785	0.45532	-0.06546	0.012207	-0.003815	-0.006714	-0.036163	0.00885	0.19257	-0.010529	0.049133	-0.006866	0.014038	0.01709	-0.020142	-0.016785	0.020599	0.46661	1.1848	-0.071259	-0.035706	-0.10773	0.14053	-0.029144	0.04715	0.011902	-0.072021	-0.00885	1.1644	-0.030365	-0.001373	-0.007629
37.404	0.018463	0.39719	-0.076141	0.013428	0.004425	-0.003052	-0.026703	0.005188	0.20172	0.000305	0.02533	-0.006256	0.028687	0.008545	-0.034485	-0.010071	0.021057	0.50049	0.6929	-0.027618	-0.075226	-0.23041	0.086212	-0.00824	0.093079	0.005035	-0.15259	-0.010529	1.8726	-0.10941	-0.002441	-0.001831
37.405	0.005493	0.38513	-0.063019	0.016022	0.006866	-0.023956	-0.02243	0.005798	0.19287	-0.001984	0.017395	-0.013275	-0.014343	0.024719	0.007477	-0.012817	0.00885	0.39139	-0.082855	-0.037842	-0.083618	-0.28824	0.079651	0.048523	0.040894	-0.0177	-0.2684	-0.01358	2.1973	-0.12756	-0.00061	0.001831
37.406	0.010071	0.37125	-0.06134	0.010376	0.007477	-0.004578	-0.023193	0.007782	0.1889	0.01709	0.032196	-0.006561	0.000458	0.03418	0.008087	-0.012512	0.002747	0.29236	-0.78522	-0.046387	-0.06073	-0.20462	0.12741	0.11429	0.06134	-0.043793	-0.26016	-0.010834	0.084991	-0.094299	-0.000305	-0.003357
37.407	0.010986	0.37384	-0.059357	0.007324	0.012054	-0.006256	-0.03067	0.005341	0.17471	-0.002441	0.033875	-0.006561	0.040131	-0.007324	-0.031433	-0.011139	-0.013885	0.24292	-0.83389	-0.057373	0.014648	-0.018463	0.10483	0.11398	0.031281	-0.029755	-0.032959	-0.016632	-1.2885	-0.007172	-0.002136	-0.00824
37.408	0.009308	0.35812	-0.057678	-0.001984	0.016327	-0.012207	-0.003357	0.003662	0.17151	-0.01236	0.033569	0.002289	0.0737	-0.024261	-0.031433	-0.007172	0.002747	0.14496	-0.54825	-0.070801	0.031281	0.080872	0.001373	0.014954	-0.041809	-0.008392	0.1355	-0.010834	-1.1929	0.045166	0.001068	-0.007629
37.409	0.008392	0.34271	-0.065308	-0.015106	0.020599	-0.011749	-0.017853	0.002136	0.16266	-0.029602	0.061646	0.001373	0.095215	-0.023651	-0.009766	0.000763	0.006409	0.20859	0.10117	-0.01297	0.065308	0.021362	-0.11765	-0.070038	-0.048676	-0.003815	0.03006	0	-0.3952	0.019073	0.000458	-0.003052
37.41	0.010223	0.31311	-0.076904	0.015106	-0.004272	-0.040283	-0.02243	-0.001984	0.15564	-0.041809	0.08316	-0.009766	0.13687	-0.028992	-0.029144	0.003204	0.021667	0.14999	0.010681	0.080872	0.024414	-0.062866	0.050354	-0.060577	-0.016022	-0.024414	0.07019	0.013123	-1.3942	0.03006	-0.001831	-0.007019
37.411	0.007629	0.31754	-0.07309	0.025177	-0.01709	-0.042877	-0.010223	0.004272	0.15991	-0.04425	0.057983	0.003815	0.11963	-0.044556	-0.065155	-0.007477	0.014038	0.061798	-0.30853	0.042572	-0.028229	-0.003052	0.06134	-0.017548	0.002594	0.00473	0.025177	0.003967	-1.2923	-0.036011	0.00061	-0.007477
37.412	0.009155	0.29953	-0.075989	0.013123	-0.015106	-0.04364	-0.011902	-0.002136	0.15549	-0.052032	-0.05249	-0.002441	0.10574	-0.04303	0.42297	-0.001678	0.007629	-0.052948	-0.62866	-0.054779	-0.023193	0.003052	-0.033722	-0.037994	0.024719	0.015869	-0.05722	-0.01297	0.08194	0.03418	0.013123	-0.008545
37.413	0.006104	0.28732	-0.079346	0.008545	-0.002594	-0.022278	0.00885	0.003357	0.15793	-0.056458	-0.085754	-0.004425	0.077972	-0.08667	-0.14099	-0.003357	0.015411	-0.029755	-0.25391	-0.086823	-0.014191	0.033569	-0.017548	0.002899	0.030823	-0.025787	-0.053864	-0.014954	1.0326	0.060272	0.002899	-0.019073
37.414	0.010223	0.26627	-0.074005	0.005646	-0.010223	-0.024567	0.014191	0.013428	0.15198	-0.061035	-0.02243	-0.000153	0.067749	-0.04303	0.20233	0.000305	0.010986	0.016937	-0.14282	-0.066986	-0.03067	0.09079	0.04425	-0.038605	0.011292	-0.062103	0.019989	-0.021667	0.74219	0.12466	-0.007324	-0.013733
37.415	-0.00061	0.2565	-0.080872	-0.000305	-0.008087	-0.038605	0.005646	0.004578	0.14496	-0.049591	0.070343	-0.003204	0.041046	0.030975	-0.38147	-0.002136	-0.011444	-0.051575	0.017548	0.04715	-0.097351	0.059814	0.083618	-0.067139	-0.014954	-0.12268	0.08606	-0.033875	0.44617	0.21973	0.001678	-0.002136
37.416	-0.014038	0.25971	-0.077362	0.012207	0.007629	-0.020752	0.010376	0.00412	0.13519	-0.032959	0.045319	0.006409	0.039673	0.036163	0.96664	0.007477	-0.018005	0.001678	0.27908	0.11826	0.010681	0.070496	0.11688	-0.058746	-0.041199	-0.22507	0.063782	-0.04776	0.52917	0.21744	0.001526	0.003357
37.417	0.053406	0.23499	-0.054779	-0.00351	-0.003052	-0.007935	0.004883	0.005798	0.14023	-0.005493	0.039368	-0.00824	0.034637	0.015411	-0.21713	0.000763	-0.00946	-0.087738	0.4686	0.032196	0.086212	0.054321	0.18677	-0.1326	-0.064392	-0.2887	0.051422	-0.042877	-0.012512	0.070648	0	0.004883
37.418	0.00824	0.22186	-0.035248	0.010529	-0.00885	-0.002747	-0.008698	0	0.12619	-0.008087	-0.002899	0.003967	0.062866	0.04715	-0.19073	0.008545	-0.011139	-0.12924	0.31158	-0.037994	0.063019	0.074768	0.16556	-0.086975	-0.032806	-0.19882	0.091248	0.03067	-1.7322	-0.063171	-0.000153	0.002594
37.419	0.01358	0.20172	-0.050507	0.014038	-0.017395	-0.007629	0.014343	0.003967	0.12695	-0.02121	-0.007019	0.003204	0.054932	0.050354	-0.40558	0.010376	-0.020447	-0.13611	0.26382	0.033112	-0.035248	0.066833	0.091248	0.005035	0.089417	-0.078125	0.007477	0.084229	-1.0966	-0.10422	-0.000305	-0.010071
37.42	0.014191	0.2095	-0.053864	0.001526	-0.03891	-0.043488	0.007477	-0.002289	0.11749	-0.006409	-0.050201	-0.00824	-0.055695	-0.002289	0.41046	0.015411	-0.00885	-0.12421	0.36316	0.12329	-0.15991	0.057983	0.088348	0.15305	0.11795	-0.053711	-0.19226	0.005188	0.34393	-0.18524	-0.00412	-0.010681
37.421	0.012817	0.20493	-0.060577	0.012512	-0.022125	-0.064087	-0.000763	0.005646	0.11612	-0.011139	-0.06134	0.000305	-0.070038	0.024414	0.07019	0.005493	0.00946	-0.088501	0.56747	0.22476	-0.11002	-0.012817	0.12405	0.072632	0.014191	0.015411	-0.1149	0.041504	0.20844	-0.13916	0.001831	-0.013123
37.422	0.01236	0.16205	-0.079193	0.00412	0.031281	-0.039978	-0.005341	0.009766	0.12116	-0.022583	-0.077515	-0.001373	-0.036316	0.066833	-0.47516	0.017853	0.019531	-0.13504	0.06134	0.22339	0.080109	0.036774	0.19669	-0.012054	-0.053253	0.081787	-0.005188	-0.015717	0.30975	-0.067444	-0.000916	-0.007172
37.423	0.014191	0.19608	-0.065002	0.00946	0.020294	-0.013733	0.00885	0.004578	0.11765	-0.017242	-0.1004	-0.015869	-0.008392	0.025482	0.015564	0.009766	-0.029449	-0.18982	-0.033417	0.05127	0.10483	0.13107	-0.17761	0.017548	0.007782	-0.061493	0.070648	-0.049744	0.11612	0.065308	0.002289	-0.014191
37.424	-0.001831	0.22507	-0.078583	0.010529	0.00473	-0.002747	-0.00412	0.005646	0.11017	-0.023499	-0.069122	-0.000763	0.002136	-0.017548	-0.29114	0.0177	-0.057526	-0.11978	0.078735	-0.011902	-0.048828	0.06897	-0.40878	0.087891	0.13809	-0.00885	0.14481	0.025177	0.15106	0.19134	-0.000305	-0.007629
37.425	0.009003	0.22003	-0.061493	0	-0.009155	-0.000458	-0.003204	0.00473	0.112	-0.050964	0.10635	-0.000458	0.05722	-0.047607	-0.2861	0.008545	-0.032349	-0.12619	-0.15762	-0.04303	-0.032196	0.055847	-0.26749	0.15182	0.15243	0.060425	0.16953	-0.00946	-0.33997	0.19012	-0.000305	-0.013123
